<svg width="49" height="49" viewBox="0 0 49 49" fill="none" xmlns="http://www.w3.org/2000/svg">
<g clip-path="url(#clip0)">
<path d="M39.4695 37.8372C39.5314 38.4749 39.4593 39.1185 39.2577 39.7267C39.0561 40.3348 38.7295 40.8941 38.2989 41.3686C37.8683 41.843 37.3432 42.2221 36.7574 42.4816C36.1715 42.741 35.5379 42.875 34.8972 42.875H27.5625C27.1564 42.875 26.7669 42.7137 26.4797 42.4265C26.1926 42.1393 26.0312 41.7499 26.0312 41.3438V40.1739C26.0312 38.0424 27.5533 36.554 28.7018 35.6751C28.84 35.5768 28.9593 35.4544 29.0539 35.3137C29.0693 35.2898 29.0816 35.2641 29.0907 35.2371L29.0938 35.2188V35.2096L29.0846 35.1789C29.0723 35.1483 29.0417 35.0932 28.9743 35.0166C28.74 34.7667 28.4591 34.5649 28.1474 34.4225C27.2869 33.9937 26.0006 33.6875 24.5 33.6875C22.9932 33.6875 21.707 33.9937 20.8556 34.4225C20.5429 34.5645 20.2609 34.7664 20.0257 35.0166C19.9749 35.0735 19.9345 35.1388 19.9062 35.2096V35.2371C19.9153 35.2641 19.9276 35.2898 19.943 35.3137C20.0376 35.4544 20.157 35.5768 20.2952 35.6751C21.4436 36.554 22.9657 38.0424 22.9657 40.1739V41.3438C22.9657 41.7493 22.8048 42.1383 22.5183 42.4254C22.2318 42.7125 21.8431 42.8742 21.4375 42.875H14.1028C13.4621 42.875 12.8285 42.741 12.2426 42.4816C11.6568 42.2221 11.1317 41.843 10.7011 41.3686C10.2705 40.8941 9.94392 40.3348 9.74232 39.7267C9.54072 39.1185 9.46857 38.4749 9.5305 37.8372L10.2747 29.0938H9.54888C8.95169 29.0938 8.26262 29.5439 7.48169 30.5638C6.83856 31.4029 5.86469 32.1563 4.59375 32.1563C2.85425 32.1563 1.69356 30.7873 1.05962 29.5164C0.376687 28.1536 0 26.3773 0 24.5C0 22.6227 0.376687 20.8464 1.05962 19.4836C1.69356 18.2127 2.85425 16.8438 4.59375 16.8438C5.86469 16.8438 6.83856 17.5971 7.48169 18.4363C8.26262 19.4561 8.95169 19.9063 9.54888 19.9063H10.2747L9.5305 11.1628C9.46857 10.5251 9.54072 9.88148 9.74232 9.27332C9.94392 8.66515 10.2705 8.10588 10.7011 7.63144C11.1317 7.157 11.6568 6.77788 12.2426 6.51844C12.8285 6.25901 13.4621 6.12499 14.1028 6.125L21.4375 6.125C21.8436 6.125 22.2331 6.28633 22.5203 6.57349C22.8074 6.86066 22.9687 7.25014 22.9687 7.65625V8.82612C22.9687 10.9576 21.4467 12.446 20.2983 13.3249C20.16 13.4232 20.0407 13.5456 19.9461 13.6863C19.9307 13.7102 19.9184 13.7359 19.9093 13.7629L19.9062 13.7813V13.7904C19.9342 13.8623 19.9747 13.9286 20.0257 13.9864C20.2603 14.2353 20.5411 14.4361 20.8526 14.5775C21.7131 15.0063 22.9994 15.3125 24.5 15.3125C26.0037 15.3125 27.293 15.0063 28.1444 14.5775C28.4572 14.4355 28.7391 14.2337 28.9743 13.9834C29.025 13.9265 29.0655 13.8612 29.0937 13.7904V13.7813L29.0907 13.7629C29.0816 13.7359 29.0693 13.7102 29.0539 13.6863C29.0049 13.6036 28.9008 13.4781 28.7018 13.3249C27.5533 12.446 26.0312 10.9576 26.0312 8.82612V7.65625C26.0312 7.25014 26.1926 6.86066 26.4797 6.57349C26.7669 6.28633 27.1564 6.125 27.5625 6.125H34.8972C35.5379 6.12499 36.1715 6.25901 36.7574 6.51844C37.3432 6.77788 37.8683 7.157 38.2989 7.63144C38.7295 8.10588 39.0561 8.66515 39.2577 9.27332C39.4593 9.88148 39.5314 10.5251 39.4695 11.1628L38.7223 19.9062H39.4511C40.0483 19.9062 40.7374 19.4561 41.5183 18.4363C42.1614 17.5971 43.1353 16.8438 44.4062 16.8438C46.1458 16.8438 47.3064 18.2127 47.9404 19.4836C48.6233 20.8464 49 22.6227 49 24.5C49 26.3773 48.6233 28.1536 47.9404 29.5164C47.3064 30.7873 46.1458 32.1562 44.4062 32.1562C43.1353 32.1562 42.1614 31.4029 41.5183 30.5638C40.7374 29.5439 40.0483 29.0938 39.4511 29.0938H38.7223L39.4695 37.8372ZM34.8972 39.8125C35.1113 39.8127 35.3231 39.768 35.5189 39.6813C35.7147 39.5946 35.8901 39.4678 36.0338 39.309C36.1775 39.1503 36.2864 38.9632 36.3533 38.7598C36.4202 38.5564 36.4437 38.3412 36.4223 38.1281L36.4193 38.1067L35.5311 27.6942C35.5129 27.4828 35.5388 27.27 35.6071 27.0691C35.6755 26.8683 35.7848 26.6839 35.9282 26.5275C36.0716 26.3712 36.2459 26.2463 36.4401 26.1609C36.6343 26.0755 36.8441 26.0313 37.0562 26.0312H39.4511C41.5826 26.0312 43.071 27.5533 43.9499 28.7018C44.0482 28.84 44.1706 28.9593 44.3113 29.0539C44.3352 29.0693 44.3609 29.0817 44.3879 29.0907L44.4062 29.0938H44.4154C44.4873 29.0658 44.5537 29.0254 44.6114 28.9743C44.8603 28.7397 45.061 28.4588 45.2025 28.1474C45.6312 27.2869 45.9375 26.0006 45.9375 24.5C45.9375 22.9963 45.6312 21.707 45.2025 20.8556C44.9881 20.4269 44.7737 20.1666 44.6084 20.0257C44.5515 19.9749 44.4862 19.9345 44.4154 19.9062H44.4062L44.3879 19.9093C44.3609 19.9183 44.3352 19.9307 44.3113 19.9461C44.1706 20.0407 44.0482 20.16 43.9499 20.2983C43.071 21.4467 41.5826 22.9688 39.4511 22.9688H37.0562C36.8444 22.9687 36.6348 22.9246 36.4409 22.8393C36.2469 22.7541 36.0728 22.6295 35.9294 22.4735C35.7861 22.3175 35.6766 22.1334 35.6081 21.933C35.5395 21.7325 35.5133 21.52 35.5311 21.3089L36.4193 10.8719C36.4406 10.6591 36.4172 10.4442 36.3505 10.241C36.2837 10.0378 36.1752 9.8508 36.0318 9.69212C35.8884 9.53343 35.7134 9.40655 35.5179 9.31964C35.3225 9.23272 35.1111 9.18771 34.8972 9.1875H29.1458C29.2928 9.69587 29.743 10.2655 30.5638 10.8933C31.4029 11.5364 32.1562 12.5103 32.1562 13.7813C32.1562 15.5208 30.7873 16.6814 29.5164 17.3154C28.1536 17.9983 26.3773 18.375 24.5 18.375C22.6227 18.375 20.8464 17.9983 19.4836 17.3154C18.2127 16.6814 16.8438 15.5208 16.8437 13.7813C16.8437 12.5103 17.5971 11.5364 18.4363 10.8933C19.257 10.2655 19.7072 9.69894 19.8542 9.1875H14.1028C13.8887 9.18728 13.6769 9.23198 13.4811 9.3187C13.2853 9.40543 13.1099 9.53225 12.9662 9.69098C12.8225 9.84971 12.7136 10.0368 12.6467 10.2402C12.5798 10.4436 12.5563 10.6588 12.5777 10.8719L12.5807 10.8933L13.4689 21.3058C13.4871 21.5172 13.4612 21.73 13.3929 21.9309C13.3245 22.1317 13.2152 22.3161 13.0718 22.4725C12.9284 22.6288 12.7541 22.7537 12.5599 22.8391C12.3657 22.9245 12.1559 22.9687 11.9437 22.9688H9.54888C7.41738 22.9688 5.929 21.4467 5.05006 20.2983C4.89694 20.0992 4.77138 19.9951 4.68869 19.9461C4.64888 19.9216 4.62437 19.9154 4.61212 19.9093C4.60619 19.9074 4.6 19.9063 4.59375 19.9063H4.58456C4.51271 19.9342 4.44636 19.9747 4.38856 20.0257C4.13972 20.2603 3.93896 20.5412 3.7975 20.8526C3.36875 21.7101 3.0625 22.9963 3.0625 24.5C3.0625 26.0068 3.36875 27.293 3.7975 28.1444C3.93953 28.4571 4.14136 28.7391 4.39163 28.9743C4.44854 29.025 4.51382 29.0654 4.58456 29.0938H4.59375L4.61212 29.0907C4.63906 29.0816 4.66477 29.0693 4.68869 29.0539C4.8294 28.9593 4.95183 28.84 5.05006 28.7018C5.929 27.5533 7.41738 26.0313 9.54888 26.0313H11.9437C12.1559 26.0313 12.3657 26.0755 12.5599 26.1609C12.7541 26.2463 12.9284 26.3712 13.0718 26.5275C13.2152 26.6839 13.3245 26.8683 13.3929 27.0691C13.4612 27.27 13.4871 27.4828 13.4689 27.6942L12.5807 38.1281C12.5594 38.3409 12.5828 38.5558 12.6495 38.759C12.7163 38.9622 12.8248 39.1492 12.9682 39.3079C13.1116 39.4666 13.2866 39.5935 13.4821 39.6804C13.6775 39.7673 13.8889 39.8123 14.1028 39.8125L19.8542 39.8125C19.7072 39.3041 19.257 38.7345 18.4363 38.1067C17.5971 37.4636 16.8438 36.4897 16.8438 35.2188C16.8438 33.4792 18.2127 32.3186 19.4836 31.6846C20.8464 31.0017 22.6227 30.625 24.5 30.625C26.3773 30.625 28.1536 31.0017 29.5164 31.6846C30.7873 32.3186 32.1562 33.4792 32.1562 35.2188C32.1562 36.4897 31.4029 37.4636 30.5638 38.1067C29.743 38.7345 29.2928 39.3011 29.1458 39.8125H34.8972Z" fill="#9CF1E2"/>
</g>
<defs>
<clipPath id="clip0">
<rect width="49" height="49" fill="white"/>
</clipPath>
</defs>
</svg>
