<svg width="223" height="49" viewBox="0 0 223 49" fill="none" xmlns="http://www.w3.org/2000/svg">
<path d="M62.6299 36V34.11L66.0249 33.69V15.245L62.9449 14.895V13.005H72.1849L77.8899 28.405L83.2449 13.005H92.0999V14.895L89.6149 15.175C89.5916 16.5983 89.5682 18.045 89.5449 19.515C89.5449 20.9617 89.5449 22.4083 89.5449 23.855V25.15C89.5449 26.5967 89.5449 28.0433 89.5449 29.49C89.5682 30.9367 89.5916 32.3833 89.6149 33.83L92.2049 34.11V36H81.0399V34.11L83.5949 33.795C83.6416 32.3717 83.6532 30.9833 83.6299 29.63C83.6299 28.2767 83.6416 27.0283 83.6649 25.885L83.7349 18.15L77.5049 36H74.8099L68.1249 18.115L68.2999 25.115V33.655L71.1699 34.11V36H62.6299Z" fill="#9CF1E2"/>
<path d="M95.5818 14.895V13.005H113.432L113.677 19.025H110.772L110.072 14.965H104.227C104.203 16.295 104.18 17.6367 104.157 18.99C104.157 20.3433 104.157 21.7083 104.157 23.085H107.937L108.357 20.355H110.387V27.88H108.357L107.937 25.15H104.157C104.157 26.76 104.157 28.2883 104.157 29.735C104.18 31.1817 104.203 32.6167 104.227 34.04H110.772L111.472 29.98H114.377L114.132 36H95.5818V34.11L98.2068 33.83C98.2535 32.4067 98.2768 30.9717 98.2768 29.525C98.2768 28.0783 98.2768 26.62 98.2768 25.15V23.855C98.2768 22.4083 98.2768 20.9617 98.2768 19.515C98.2768 18.045 98.2535 16.5983 98.2068 15.175L95.5818 14.895Z" fill="#9CF1E2"/>
<path d="M125.077 36.665C123.771 36.665 122.429 36.5133 121.052 36.21C119.676 35.9067 118.486 35.44 117.482 34.81L117.692 29.63H120.947L121.647 33.935C122.184 34.145 122.721 34.3083 123.257 34.425C123.794 34.5183 124.389 34.565 125.042 34.565C126.302 34.565 127.259 34.25 127.912 33.62C128.566 32.9667 128.892 32.1733 128.892 31.24C128.892 30.3067 128.647 29.5833 128.157 29.07C127.691 28.5567 126.932 28.0667 125.882 27.6L124.377 26.935C122.324 25.9783 120.726 24.9167 119.582 23.75C118.462 22.5833 117.902 21.0317 117.902 19.095C117.902 16.995 118.684 15.35 120.247 14.16C121.834 12.9467 123.946 12.34 126.582 12.34C127.842 12.34 129.044 12.5033 130.187 12.83C131.354 13.1333 132.357 13.565 133.197 14.125L132.917 19.025H129.697L129.032 14.895C128.659 14.755 128.286 14.65 127.912 14.58C127.539 14.4867 127.131 14.44 126.687 14.44C125.684 14.44 124.832 14.7317 124.132 15.315C123.432 15.8983 123.082 16.6683 123.082 17.625C123.082 18.5583 123.351 19.305 123.887 19.865C124.447 20.4017 125.241 20.9033 126.267 21.37L127.912 22.105C130.129 23.1083 131.727 24.17 132.707 25.29C133.711 26.3867 134.212 27.8217 134.212 29.595C134.212 31.6483 133.431 33.34 131.867 34.67C130.327 36 128.064 36.665 125.077 36.665Z" fill="#9CF1E2"/>
<path d="M150.77 14.895V13.005H161.83V14.895L159.24 15.175C159.217 16.5983 159.194 18.0333 159.17 19.48C159.17 20.9267 159.17 22.385 159.17 23.855V25.15C159.17 26.5733 159.17 28.02 159.17 29.49C159.194 30.9367 159.217 32.3833 159.24 33.83L161.83 34.11V36H150.77V34.11L153.22 33.865C153.267 32.4183 153.29 30.9717 153.29 29.525C153.29 28.0783 153.29 26.6433 153.29 25.22H145.835C145.835 26.7833 145.835 28.2767 145.835 29.7C145.859 31.1 145.882 32.4883 145.905 33.865L148.355 34.11V36H137.33V34.11L139.885 33.83C139.932 32.4067 139.955 30.9717 139.955 29.525C139.955 28.0783 139.955 26.62 139.955 25.15V23.855C139.955 22.4083 139.955 20.9617 139.955 19.515C139.955 18.0683 139.932 16.6217 139.885 15.175L137.33 14.895V13.005H148.355V14.895L145.905 15.14C145.882 16.5633 145.859 17.975 145.835 19.375C145.835 20.775 145.835 22.035 145.835 23.155H153.29C153.29 21.825 153.29 20.495 153.29 19.165C153.29 17.8117 153.267 16.47 153.22 15.14L150.77 14.895Z" fill="#9CF1E2"/>
<path d="M167.418 15.49L176.133 13.565L176.623 13.915L176.483 18.885V28.72C176.483 29.49 176.483 30.26 176.483 31.03C176.483 31.8 176.495 32.5817 176.518 33.375L180.578 34.355V36H166.543V34.355L170.813 33.375C170.836 32.605 170.848 31.835 170.848 31.065C170.848 30.2717 170.848 29.49 170.848 28.72V17.205L167.418 17.52V15.49Z" fill="#9CF1E2"/>
<path d="M187.823 35.65L198.008 18.255H185.863V13.95H201.543V16.61L193.318 36H188.173L187.823 35.65Z" fill="#9CF1E2"/>
<path d="M222.052 31.31H218.832V36H213.862V31.31H204.762V28.125L214.947 13.565H218.832V27.46H222.052V31.31ZM207.667 27.46H213.862V18.465L207.667 27.46Z" fill="#9CF1E2"/>
<g clip-path="url(#clip0)">
<path d="M39.4695 37.8372C39.5314 38.4749 39.4593 39.1185 39.2577 39.7267C39.0561 40.3348 38.7295 40.8941 38.2989 41.3686C37.8683 41.843 37.3432 42.2221 36.7574 42.4816C36.1715 42.741 35.5379 42.875 34.8972 42.875H27.5625C27.1564 42.875 26.7669 42.7137 26.4797 42.4265C26.1926 42.1393 26.0312 41.7499 26.0312 41.3438V40.1739C26.0312 38.0424 27.5533 36.554 28.7018 35.6751C28.84 35.5768 28.9593 35.4544 29.0539 35.3137C29.0693 35.2898 29.0816 35.2641 29.0907 35.2371L29.0938 35.2188V35.2096L29.0846 35.1789C29.0723 35.1483 29.0417 35.0932 28.9743 35.0166C28.74 34.7667 28.4591 34.5649 28.1474 34.4225C27.2869 33.9937 26.0006 33.6875 24.5 33.6875C22.9932 33.6875 21.707 33.9937 20.8556 34.4225C20.5429 34.5645 20.2609 34.7664 20.0257 35.0166C19.9749 35.0735 19.9345 35.1388 19.9062 35.2096V35.2371C19.9153 35.2641 19.9276 35.2898 19.943 35.3137C20.0376 35.4544 20.157 35.5768 20.2952 35.6751C21.4436 36.554 22.9657 38.0424 22.9657 40.1739V41.3438C22.9657 41.7493 22.8048 42.1383 22.5183 42.4254C22.2318 42.7125 21.8431 42.8742 21.4375 42.875H14.1028C13.4621 42.875 12.8285 42.741 12.2426 42.4816C11.6568 42.2221 11.1317 41.843 10.7011 41.3686C10.2705 40.8941 9.94392 40.3348 9.74232 39.7267C9.54072 39.1185 9.46857 38.4749 9.5305 37.8372L10.2747 29.0938H9.54888C8.95169 29.0938 8.26262 29.5439 7.48169 30.5638C6.83856 31.4029 5.86469 32.1563 4.59375 32.1563C2.85425 32.1563 1.69356 30.7873 1.05962 29.5164C0.376687 28.1536 0 26.3773 0 24.5C0 22.6227 0.376687 20.8464 1.05962 19.4836C1.69356 18.2127 2.85425 16.8438 4.59375 16.8438C5.86469 16.8438 6.83856 17.5971 7.48169 18.4363C8.26262 19.4561 8.95169 19.9063 9.54888 19.9063H10.2747L9.5305 11.1628C9.46857 10.5251 9.54072 9.88148 9.74232 9.27332C9.94392 8.66515 10.2705 8.10588 10.7011 7.63144C11.1317 7.157 11.6568 6.77788 12.2426 6.51844C12.8285 6.25901 13.4621 6.12499 14.1028 6.125L21.4375 6.125C21.8436 6.125 22.2331 6.28633 22.5203 6.57349C22.8074 6.86066 22.9687 7.25014 22.9687 7.65625V8.82612C22.9687 10.9576 21.4467 12.446 20.2983 13.3249C20.16 13.4232 20.0407 13.5456 19.9461 13.6863C19.9307 13.7102 19.9184 13.7359 19.9093 13.7629L19.9062 13.7813V13.7904C19.9342 13.8623 19.9747 13.9286 20.0257 13.9864C20.2603 14.2353 20.5411 14.4361 20.8526 14.5775C21.7131 15.0063 22.9994 15.3125 24.5 15.3125C26.0037 15.3125 27.293 15.0063 28.1444 14.5775C28.4572 14.4355 28.7391 14.2337 28.9743 13.9834C29.025 13.9265 29.0655 13.8612 29.0937 13.7904V13.7813L29.0907 13.7629C29.0816 13.7359 29.0693 13.7102 29.0539 13.6863C29.0049 13.6036 28.9008 13.4781 28.7018 13.3249C27.5533 12.446 26.0312 10.9576 26.0312 8.82612V7.65625C26.0312 7.25014 26.1926 6.86066 26.4797 6.57349C26.7669 6.28633 27.1564 6.125 27.5625 6.125H34.8972C35.5379 6.12499 36.1715 6.25901 36.7574 6.51844C37.3432 6.77788 37.8683 7.157 38.2989 7.63144C38.7295 8.10588 39.0561 8.66515 39.2577 9.27332C39.4593 9.88148 39.5314 10.5251 39.4695 11.1628L38.7223 19.9062H39.4511C40.0483 19.9062 40.7374 19.4561 41.5183 18.4363C42.1614 17.5971 43.1353 16.8438 44.4062 16.8438C46.1458 16.8438 47.3064 18.2127 47.9404 19.4836C48.6233 20.8464 49 22.6227 49 24.5C49 26.3773 48.6233 28.1536 47.9404 29.5164C47.3064 30.7873 46.1458 32.1562 44.4062 32.1562C43.1353 32.1562 42.1614 31.4029 41.5183 30.5638C40.7374 29.5439 40.0483 29.0938 39.4511 29.0938H38.7223L39.4695 37.8372ZM34.8972 39.8125C35.1113 39.8127 35.3231 39.768 35.5189 39.6813C35.7147 39.5946 35.8901 39.4678 36.0338 39.309C36.1775 39.1503 36.2864 38.9632 36.3533 38.7598C36.4202 38.5564 36.4437 38.3412 36.4223 38.1281L36.4193 38.1067L35.5311 27.6942C35.5129 27.4828 35.5388 27.27 35.6071 27.0691C35.6755 26.8683 35.7848 26.6839 35.9282 26.5275C36.0716 26.3712 36.2459 26.2463 36.4401 26.1609C36.6343 26.0755 36.8441 26.0313 37.0562 26.0312H39.4511C41.5826 26.0312 43.071 27.5533 43.9499 28.7018C44.0482 28.84 44.1706 28.9593 44.3113 29.0539C44.3352 29.0693 44.3609 29.0817 44.3879 29.0907L44.4062 29.0938H44.4154C44.4873 29.0658 44.5537 29.0254 44.6114 28.9743C44.8603 28.7397 45.061 28.4588 45.2025 28.1474C45.6312 27.2869 45.9375 26.0006 45.9375 24.5C45.9375 22.9963 45.6312 21.707 45.2025 20.8556C44.9881 20.4269 44.7737 20.1666 44.6084 20.0257C44.5515 19.9749 44.4862 19.9345 44.4154 19.9062H44.4062L44.3879 19.9093C44.3609 19.9183 44.3352 19.9307 44.3113 19.9461C44.1706 20.0407 44.0482 20.16 43.9499 20.2983C43.071 21.4467 41.5826 22.9688 39.4511 22.9688H37.0562C36.8444 22.9687 36.6348 22.9246 36.4409 22.8393C36.2469 22.7541 36.0728 22.6295 35.9294 22.4735C35.7861 22.3175 35.6766 22.1334 35.6081 21.933C35.5395 21.7325 35.5133 21.52 35.5311 21.3089L36.4193 10.8719C36.4406 10.6591 36.4172 10.4442 36.3505 10.241C36.2837 10.0378 36.1752 9.8508 36.0318 9.69212C35.8884 9.53343 35.7134 9.40655 35.5179 9.31964C35.3225 9.23272 35.1111 9.18771 34.8972 9.1875H29.1458C29.2928 9.69587 29.743 10.2655 30.5638 10.8933C31.4029 11.5364 32.1562 12.5103 32.1562 13.7813C32.1562 15.5208 30.7873 16.6814 29.5164 17.3154C28.1536 17.9983 26.3773 18.375 24.5 18.375C22.6227 18.375 20.8464 17.9983 19.4836 17.3154C18.2127 16.6814 16.8438 15.5208 16.8437 13.7813C16.8437 12.5103 17.5971 11.5364 18.4363 10.8933C19.257 10.2655 19.7072 9.69894 19.8542 9.1875H14.1028C13.8887 9.18728 13.6769 9.23198 13.4811 9.3187C13.2853 9.40543 13.1099 9.53225 12.9662 9.69098C12.8225 9.84971 12.7136 10.0368 12.6467 10.2402C12.5798 10.4436 12.5563 10.6588 12.5777 10.8719L12.5807 10.8933L13.4689 21.3058C13.4871 21.5172 13.4612 21.73 13.3929 21.9309C13.3245 22.1317 13.2152 22.3161 13.0718 22.4725C12.9284 22.6288 12.7541 22.7537 12.5599 22.8391C12.3657 22.9245 12.1559 22.9687 11.9437 22.9688H9.54888C7.41738 22.9688 5.929 21.4467 5.05006 20.2983C4.89694 20.0992 4.77138 19.9951 4.68869 19.9461C4.64888 19.9216 4.62437 19.9154 4.61212 19.9093C4.60619 19.9074 4.6 19.9063 4.59375 19.9063H4.58456C4.51271 19.9342 4.44636 19.9747 4.38856 20.0257C4.13972 20.2603 3.93896 20.5412 3.7975 20.8526C3.36875 21.7101 3.0625 22.9963 3.0625 24.5C3.0625 26.0068 3.36875 27.293 3.7975 28.1444C3.93953 28.4571 4.14136 28.7391 4.39163 28.9743C4.44854 29.025 4.51382 29.0654 4.58456 29.0938H4.59375L4.61212 29.0907C4.63906 29.0816 4.66477 29.0693 4.68869 29.0539C4.8294 28.9593 4.95183 28.84 5.05006 28.7018C5.929 27.5533 7.41738 26.0313 9.54888 26.0313H11.9437C12.1559 26.0313 12.3657 26.0755 12.5599 26.1609C12.7541 26.2463 12.9284 26.3712 13.0718 26.5275C13.2152 26.6839 13.3245 26.8683 13.3929 27.0691C13.4612 27.27 13.4871 27.4828 13.4689 27.6942L12.5807 38.1281C12.5594 38.3409 12.5828 38.5558 12.6495 38.759C12.7163 38.9622 12.8248 39.1492 12.9682 39.3079C13.1116 39.4666 13.2866 39.5935 13.4821 39.6804C13.6775 39.7673 13.8889 39.8123 14.1028 39.8125L19.8542 39.8125C19.7072 39.3041 19.257 38.7345 18.4363 38.1067C17.5971 37.4636 16.8438 36.4897 16.8438 35.2188C16.8438 33.4792 18.2127 32.3186 19.4836 31.6846C20.8464 31.0017 22.6227 30.625 24.5 30.625C26.3773 30.625 28.1536 31.0017 29.5164 31.6846C30.7873 32.3186 32.1562 33.4792 32.1562 35.2188C32.1562 36.4897 31.4029 37.4636 30.5638 38.1067C29.743 38.7345 29.2928 39.3011 29.1458 39.8125H34.8972Z" fill="#9CF1E2"/>
</g>
<defs>
<clipPath id="clip0">
<rect width="49" height="49" fill="white"/>
</clipPath>
</defs>
</svg>
