<svg width="430" height="384" viewBox="0 0 430 384" fill="none" xmlns="http://www.w3.org/2000/svg">
<g clip-path="url(#clip0)">
<path fill-rule="evenodd" clip-rule="evenodd" d="M175.926 214.927C178.13 206.713 181.157 203.43 185.014 205.07C190.792 207.537 193.269 206.713 195.746 205.07C197.4 203.977 199.877 203.977 203.177 205.07L214.739 210C218.043 211.094 220.243 214.927 221.347 221.501C222.447 228.071 223.274 232.451 223.824 234.641C232.082 237.928 236.76 242.858 237.863 249.429C239.513 259.286 226.301 269.143 199.05 264.212C171.799 259.286 154.456 243.678 156.109 234.641C157.209 228.618 162.44 225.608 171.799 225.608L175.926 214.927Z" fill="#EE0000"/>
<path fill-rule="evenodd" clip-rule="evenodd" d="M172.697 223.172C177.692 231.737 186.849 237.091 200.167 239.23C213.482 241.372 221.251 239.23 223.469 232.807C224.419 237.648 224.419 240.86 223.469 242.442C220.346 247.659 211.815 249.169 202.661 248.065C189.347 246.46 179.633 242.175 173.531 235.219C171.867 233.076 171.033 231.204 171.033 229.595C171.033 227.989 171.587 225.85 172.697 223.172V223.172Z" fill="black"/>
</g>
<g clip-path="url(#clip1)">
<path d="M326.831 308.258L318.286 309.646L310.491 313.064L303.87 317.228L297.569 324.917L294.01 328.687L290.567 329.956L289.657 327.731L291.249 325.433L291.607 322.193L292.673 322.237L293.838 323.299L293.523 319.999L292.232 319.132L292.272 317.874L289.213 319.605L286.443 322.873L285.865 325.794L287.05 328.133L288.154 332.106L290.401 333.17L292.765 333.054L295.006 331.752L293.511 339.334L295.006 347.771L293.36 351.666L287.97 357.474L288.928 360.944L291.482 364.965L296.297 368.353L298.85 368.703L301.69 368.799L299.918 376.072L306.433 378.741L314.549 379.809L317.325 377.994L317.539 373.081L320.636 367.955L320.85 363.897L328.325 364.431L335.267 363.79L328.325 367.955L329.501 372.974L333.878 379.809L338.15 381.624L341.568 380.236L342.955 377.459L350.111 372.013L351.499 373.187L362.712 373.615L364.955 371.8L365.168 368.595L364.421 367.208L363.887 358.557L360.149 351.082L360.79 347.771L363.032 348.946L369.333 354.819L372.43 355.033L375.847 353.645L379.265 351.082L380.974 345.529L391.012 346.169L397.1 343.821L402.012 339.228L405.536 332.607L406.39 324.811L405.642 315.733L403.72 307.618L401.798 305.055L399.129 304.2L394.429 309.326L390.158 310.821L386.42 304.627L382.682 301.21L380.653 299.929L372.537 293.201L366.023 289.676L359.508 289.143L351.926 290.424L345.305 292.88L340.713 296.618L337.082 300.997L333.345 302.065L326.83 308.258" fill="#FFFF00"/>
<path d="M302.052 327.532C294.734 336.067 296.36 346.419 298.388 356.562C297.306 353.827 296.224 351.093 295.141 348.358L293.944 340.836C294.058 338.272 294.172 335.709 294.286 333.145L297.362 325.796L301.977 318.959L309.156 312.977L317.018 309.73L326.248 308.533L317.702 318.275C310.839 320.501 306.793 322 302.052 327.532" fill="#FFFFCC"/>
<path d="M336.503 301.525C331.416 306.489 328.637 310.233 325.399 316.044C323.083 320.201 320.486 324.206 318.05 328.305C316.819 330.38 316.703 332.12 316.334 334.513L312.745 330.24C313.316 328.53 313.885 326.821 314.454 325.112L320.266 314.687L332.572 302.551C333.882 302.209 335.193 301.868 336.503 301.525" fill="#FFFFCC"/>
<path d="M361.628 289.22C357.553 290.747 350.786 291.25 350.317 295.927C349.983 299.248 350.567 300.917 352.569 304.432C347.624 299.314 346.401 300.106 336.845 301.696L340.947 295.885L348.125 291.441L357.355 289.39L361.628 289.22" fill="#FFFFCC"/>
<path d="M372.871 352.48C374.228 353.318 374.199 353.924 373.972 354.498C375.042 354.07 376.112 353.642 377.182 353.215L379.262 350.422L380.805 346.443L378.833 344.96L370.211 346.06C369.998 346.641 369.783 347.222 369.569 347.803C369.63 348.628 369.692 349.454 369.753 350.279C370.028 350.769 370.304 351.258 370.579 351.747C371.007 351.961 371.434 352.175 371.863 352.389C372.2 352.419 372.535 352.45 372.871 352.48" fill="#CCCC00"/>
<path d="M372.069 337.736C367.747 338.983 367.781 339.327 366.505 343.615C368.19 340.912 369.437 339.548 372.069 337.736Z" fill="#CCCC00"/>
<path d="M400.804 305.652C400.036 306.007 399.288 306.178 398.808 306.881C397.774 308.393 396.888 309.666 395.178 310.727C394.317 311.263 393.427 311.609 392.514 311.894C391.756 312.129 391.301 311.919 390.656 312.383C391.039 312.448 391.422 312.516 391.804 312.583H394.334L397.452 310.657L399.287 308.731L400.804 305.652" fill="#CCCC00"/>
<path d="M331.964 315.242C330.265 319.895 328.779 323.883 326.204 328.095C329.503 324.539 331.504 321.517 333.394 317.497C334.129 315.935 334.268 314.103 336.313 314.784C336.405 316.344 336.734 317.902 336.826 319.461C337.931 311.541 341.047 308.228 348.291 305.153L342.146 305.887L336.367 307.171L333.524 311.298L331.964 315.242" fill="#CCCC00"/>
<path d="M345.998 315.059C347.56 322.411 349.809 329.468 350.786 336.937C351.421 341.79 351.49 344.121 349.048 348.309C346.38 348.136 344.723 348.437 342.141 349.283C331.865 352.651 325.971 357.605 319.047 347.624L325.679 350.75C327.254 350.44 328.83 350.131 330.405 349.82C333.188 348.2 335.97 346.58 338.753 344.96L345.264 343.675L347.374 334.871L345.814 323.222C345.754 321.388 345.692 319.554 345.631 317.72C345.754 316.833 345.876 315.946 345.998 315.06" fill="#CCCC00"/>
<path d="M363.699 360.552C362.836 366.525 365.687 369.736 364.507 371.386C364.173 371.852 363.72 372.668 363.214 372.891C361.408 373.689 358.924 372.742 358.747 373.209H352.785L350.401 372.2L354.069 367.889C355.262 365.291 356.454 362.692 357.646 360.093L359.939 352.205H361.132L363.699 360.552" fill="#CCCC00"/>
<path d="M353.679 343.187C354.164 345.899 355.005 346.543 356.281 349.168C355.431 353.452 354.067 358.545 352.426 362.324C351.733 363.918 351.175 364.797 349.953 366.028C347.892 368.109 345.81 369.921 343.473 371.725C341.79 373.022 340.616 372.372 338.54 372.078C337.658 373.678 337.414 374.567 335.789 375.38C333.291 376.628 331.055 373.937 329.094 372.353C330.51 374.565 331.926 376.775 333.341 378.987C334.319 379.904 335.298 380.821 336.276 381.738L338.753 382.106L342.054 380.087C342.635 378.987 343.216 377.886 343.797 376.786C345.02 375.869 346.243 374.952 347.465 374.034C348.964 372.75 350.462 371.466 351.96 370.182L354.803 366.146L357.37 361.377C358.472 358.075 359.573 354.773 360.674 351.472C360.765 350.218 360.856 348.965 360.948 347.711C359.573 347.1 358.197 346.488 356.821 345.876C355.812 344.929 354.688 344.134 353.679 343.187" fill="#CCCC00"/>
<path d="M320.775 362.294C325.404 362.294 330.293 362.037 334.533 360.093C335.733 358.294 336.917 356.823 338.385 355.232C337.049 357.756 336.63 359.182 336.276 362.019L334.9 364.037C331.415 364.128 327.93 364.22 324.444 364.312C323.312 364.189 322.182 364.067 321.05 363.945C320.928 363.822 320.806 363.7 320.684 363.578C320.715 363.15 320.745 362.722 320.775 362.294" fill="#CCCC00"/>
<path d="M320.134 359.084L319.774 355.827C318.984 360.588 319.174 363.779 316.983 368.043C315.346 369.939 313.331 371.664 311.023 372.588C311.218 373.757 311.276 374.488 311.163 375.345C310.756 378.429 304.588 377.066 302.051 376.943L314.263 380.088L317.015 378.987C317.321 377.214 317.627 375.44 317.932 373.667L320.5 368.898L320.959 365.963L320.133 359.085" fill="#CCCC00"/>
<path d="M313.254 332.21C313.126 334.526 312.977 335.491 313.998 337.535C315.295 340.133 316.889 342.575 318.299 345.143L318.757 340.006C316.923 337.407 315.089 334.809 313.254 332.211" fill="#CCCC00"/>
<path d="M294.427 349.697C294.029 350.541 293.633 351.387 293.236 352.232C294.328 355.913 295.3 358.244 297.381 361.46C297.018 362.762 296.747 363.332 295.913 364.394C294.082 364.113 292.456 364.031 290.6 364.037C292.648 365.626 294.697 367.217 296.745 368.807C297.754 368.622 298.763 368.439 299.772 368.256L302.799 365.229L298.488 358.534C297.134 355.588 295.78 352.642 294.427 349.697" fill="#CCCC00"/>
<path d="M400.817 304.435C402.065 310.047 403.675 315.226 403.525 320.975C403.341 328.027 401.967 336.936 395.433 341.188C388.115 345.951 379.524 343.698 371.496 341.657L381.31 345.693C384.367 345.846 387.425 345.999 390.482 346.152C392.561 345.54 394.64 344.929 396.718 344.317C398.339 342.972 399.959 341.627 401.58 340.282L405.248 332.578L406.624 323.681C406.258 320.776 405.89 317.872 405.523 314.967L403.506 306.346C402.61 305.709 401.714 305.071 400.817 304.435" fill="#CCCC00"/>
<path d="M291.612 321.162C288.29 323.325 286.985 324.274 287.349 328.281L288.342 331.882L289.749 332.834L291.488 333.414L294.633 332.668C295.172 330.999 295.71 329.33 296.247 327.661L291.778 329.855H290.743C290.357 329.261 289.971 328.668 289.584 328.075L290.991 326.005L291.736 322.073C292.054 322.17 292.371 322.267 292.688 322.363C293.075 322.667 293.461 322.97 293.847 323.273L293.681 321.204L292.895 319.88C292.633 319.658 292.371 319.438 292.109 319.217L291.612 321.162" fill="#CCCC00"/>
<path d="M366.145 289.585C369.093 292.323 372.712 294.703 375.07 298.049C375.983 299.344 376.997 300.006 375.055 301.836C377.107 301.25 377.869 301.313 379.512 301.512C382.5 301.874 385.301 306.122 385.479 309.166C385.444 309.451 384.649 310.097 382.339 310.735C382.294 310.824 381.035 310.563 381.066 310.648C381.307 311.305 381.627 311.406 382.117 311.713C382.223 312.443 382.292 313.57 382.79 314.37C384.243 314.343 385.664 314.502 387.088 314.784C387.567 315.579 387.495 316.373 387.455 317.168L389.106 316.894C388.953 315.64 388.8 314.387 388.647 313.133C389.136 312.308 389.625 311.482 390.115 310.657L388.005 305.887C386.66 304.603 385.315 303.319 383.969 302.035L383.581 302.016C382.068 301.087 380.555 300.159 379.043 299.23L371.64 293.174L366.145 289.585" fill="#CCCC00"/>
<path d="M371.112 312.184C370.956 312.456 370.721 312.89 370.42 313.192C371.648 314.353 372.254 315.131 372.692 316.774C371.304 317.463 369.916 318.153 368.528 318.841L365.003 322.22C363.457 321.388 363.072 320.749 362.323 319.161C361.452 319.393 360.627 319.615 359.907 319.35C360.364 319.354 360.644 319.24 361.1 318.958L363.343 316.628C364.663 315.628 365.983 314.628 367.304 313.628L369.896 312.783C370.226 312.648 370.782 312.32 371.112 312.184" fill="#CCCC00"/>
<path d="M374.944 316.327C370.526 318.705 366.297 321.097 364.038 325.613C364.038 319.88 369.794 317.357 374.943 316.326" fill="#CCCC00"/>
<path d="M363.161 305.049C359.881 307.285 357.563 311.798 357.854 316.196C356.785 312.388 357.164 308.789 360.444 306.159C360.998 305.89 361.551 305.621 362.105 305.352C362.457 305.251 362.809 305.151 363.161 305.049" fill="#CCCC00"/>
<path d="M407.297 315.432C406.702 311.682 405.716 308.041 404.348 305.423C404.181 305.103 403.928 304.779 403.615 304.469C402.935 303.799 401.929 303.164 400.889 302.807C399.788 302.428 398.626 302.351 397.704 302.833C397.465 302.959 397.242 303.12 397.044 303.322C396.447 303.926 395.943 304.662 395.439 305.398C394.878 306.218 394.313 307.043 393.638 307.619C392.856 308.288 391.877 308.694 390.953 309.065C390.564 308.122 390.097 307.213 389.556 306.348C388.924 305.342 388.205 304.399 387.414 303.456C386.835 302.762 386.179 302.136 385.458 301.59C384.776 301.07 384.078 300.631 383.264 300.122C381.084 298.757 379.227 297.128 377.333 295.466C376.473 294.711 375.603 293.949 374.753 293.248C370.243 289.53 366.037 287.726 361.538 287.443C357.07 287.162 352.352 288.39 346.781 290.735C344.092 291.866 342.096 293.204 340.356 294.812C338.695 296.348 337.284 298.118 335.734 300.185C334.832 300.249 334.033 300.382 333.217 300.709C332.318 301.069 331.413 301.651 330.328 302.608C329.574 303.274 328.834 303.957 328.111 304.657C327.449 305.3 326.798 305.955 326.159 306.621C321.088 307.436 316.956 308.335 313.255 309.768C309.471 311.235 306.135 313.251 302.709 316.289C301.36 317.481 300.13 318.801 299.037 320.231C297.995 321.596 297.103 323.031 296.32 324.545C295.635 325.303 294.948 326.068 294.205 326.738C293.48 327.391 292.708 327.94 291.842 328.273L291.843 328.274C291.339 328.468 291.131 328.581 291.108 328.574C291.083 328.56 291.069 328.484 291.034 328.345C292.277 327.159 292.472 325.416 292.587 323.685C292.737 323.864 292.88 324.083 293.028 324.313C293.193 324.567 293.361 324.828 293.562 325.083L294.406 326.147L294.703 324.819C294.952 323.706 295.138 322.224 294.848 320.939C294.66 320.105 294.273 319.362 293.599 318.835C293.664 318.667 293.725 318.512 293.785 318.359C293.996 317.817 294.214 317.261 294.399 316.736L294.765 315.695L293.677 315.884C292.229 316.136 289.116 317.846 286.924 320.12C286.111 320.965 285.411 321.899 284.952 322.879C284.474 323.898 284.26 324.965 284.445 326.032C284.607 326.965 285.074 327.881 285.922 328.745C286.076 329.368 286.219 329.909 286.372 330.397C286.547 330.952 286.735 331.448 286.97 331.937C287.608 333.263 288.625 334.073 289.802 334.451C290.748 334.755 291.794 334.77 292.82 334.546C292.611 335.768 292.486 337.003 292.444 338.242C292.379 339.973 292.442 341.885 292.633 344.104C292.675 344.591 292.738 345.127 292.819 345.71C292.889 346.206 292.973 346.694 293.063 347.178C292.872 347.702 292.679 348.226 292.486 348.749L291.591 351.186L289.62 353.139C289.007 353.745 288.394 354.353 287.781 354.96C287.731 355.01 287.524 355.209 287.336 355.39C286.094 356.585 285.848 356.822 286.201 358.926C286.427 360.272 286.866 361.573 287.502 362.78C288.112 363.942 288.931 365.073 289.981 366.126C291.291 367.439 293.438 369.071 295.687 369.925C296.972 370.413 298.296 370.652 299.539 370.452C299.476 370.644 299.414 370.834 299.344 371.027C299.148 371.573 298.929 372.11 298.689 372.638C297.164 375.982 298.729 377.728 301.166 378.839C302.383 379.393 303.83 379.77 305.174 380.121C305.449 380.191 305.724 380.264 306.071 380.358C307.663 380.788 310.415 381.579 312.929 381.737C315.672 381.911 318.146 381.344 318.809 378.882C319.071 377.906 319.224 377.159 319.286 376.427C319.343 375.747 319.321 375.061 319.241 374.212C320.024 372.478 320.355 371.991 320.927 371.155C321.039 370.99 321.174 370.792 321.215 370.73C321.829 369.821 322.116 369.176 322.22 368.45C322.321 367.749 322.235 367.051 322.109 365.983C322.097 365.882 322.078 365.734 322.052 365.538C323.631 365.743 325.222 365.852 326.815 365.864C327.614 365.869 328.413 365.846 329.211 365.804C329.007 365.908 328.807 366.012 328.588 366.124L328.291 366.277C326.173 367.366 326.085 369.43 326.748 371.553C327.345 373.467 328.576 375.422 329.348 376.611C330.97 379.112 332.519 381.228 334.396 382.379C336.364 383.585 338.613 383.727 341.515 382.156C342.991 381.357 343.457 380.542 344.084 379.444C344.276 379.109 344.487 378.743 344.723 378.383C345.333 377.979 346.851 376.727 348.341 375.495C348.849 375.075 349.355 374.658 349.927 374.192C350.321 374.482 350.797 374.683 351.372 374.82C352.119 374.999 353.008 375.079 354.074 375.156C354.872 375.214 357.473 375.212 359.153 375.212C359.672 375.212 360.103 375.212 360.362 375.213C362.097 375.224 363.497 375.133 364.555 374.533C365.683 373.894 366.352 372.761 366.498 370.731C366.561 369.829 366.573 369.272 366.448 368.704C366.331 368.172 366.103 367.69 365.711 366.985C365.687 366.107 365.663 365.229 365.64 364.352C365.616 363.421 365.59 362.489 365.566 361.558C365.536 360.461 365.415 359.569 365.192 358.692C364.971 357.82 364.656 356.982 364.234 355.977C363.971 355.343 363.723 354.704 363.489 354.059L362.88 354.282L362.974 354.247L363.489 354.059V354.056C363.126 353.078 362.768 352.125 362.268 351.105C362.3 350.909 362.333 350.697 362.364 350.472L363.332 351.404L364.758 352.778C365.845 353.826 366.839 354.778 368.008 355.467C369.215 356.18 370.573 356.593 372.332 356.51C374.173 356.423 376.144 355.648 377.766 354.451C379.335 353.292 380.594 351.73 381.12 350.001L381.575 348.502L381.939 347.305C384.521 347.742 387.293 347.883 389.969 347.603C392.552 347.332 395.048 346.674 397.2 345.526C400.363 343.838 402.735 341.352 404.44 338.399H404.441C406.346 335.1 407.412 331.212 407.818 327.211C408.143 324.002 407.965 319.64 407.297 315.432V315.432ZM373.844 342.4C372.356 341.9 371.322 341.169 370.015 340.345C370.37 341.949 370.532 343.645 370.058 345.246C369.307 347.787 368.092 351.943 371.541 352.71C372.854 353.001 373.45 352.959 375.303 352.003C373.803 352.343 373.047 352.26 372.016 352.068C371.081 351.897 370.586 351.303 370.325 350.604C370.652 350.839 371.184 350.967 372.094 351.186C374.651 351.803 377.087 350.571 377.564 348.799C377.841 347.763 377.794 347.218 378.383 345.806C378.912 345.97 379.459 346.119 380.02 346.255L379.07 349.353C378.248 352.034 375.046 354.196 372.219 354.146C369.606 354.1 367.949 352.463 366.144 350.858C364.901 349.751 363.705 348.694 362.52 347.646C359.267 346.619 356.66 345.42 353.641 343.185C355.79 345.71 357.247 347.107 360.243 348.364C359.807 352.808 358.262 356.049 356.946 360.303C356.349 362.226 351.644 369.933 350.34 370.684C349.41 371.22 343.586 376.125 342.491 376.772C341.675 377.856 340.959 379.353 339.732 380.001C335.994 381.978 333.592 378.193 331.58 374.997C330.665 373.541 328.121 369.346 330.338 368.171C332.434 367.061 333.608 366.268 335.747 364.863C336.062 365.436 336.601 365.989 336.952 366.561L336.719 364.684C336.578 363.55 336.584 362.629 336.674 361.488C336.761 360.384 336.848 359.279 336.935 358.174C336.613 359.297 335.97 360.42 335.649 361.542C335.52 361.992 335.414 362.355 335.352 362.691C330.553 363.672 325.789 363.733 320.989 362.877C320.682 361.099 320.309 359.248 319.996 357.92C319.902 359.406 319.963 363.517 319.955 365.819C319.949 367.602 319.874 368.213 318.954 369.729C318.094 371.149 317.729 371.472 316.523 373.871C316.624 375.386 316.626 376.386 316.224 377.823C315.555 380.212 308.806 378.361 307.026 377.873C304.834 377.274 300.302 376.382 301.442 373.459C302.444 370.887 303.08 368.175 303.571 364.576C299.554 358.79 295.819 350.861 295.102 343.836C294.545 338.381 294.879 335.023 296.059 331.686C297.93 326.399 300.547 321.823 304.746 318.138C310.41 313.168 315.704 311.172 323.994 309.91C322 312.142 320.028 314.502 317.878 317.032C315.702 319.593 314.41 322.18 313.027 324.982C311.119 328.852 311.16 330.324 313.69 333.722C315.87 336.649 317.047 337.967 318 340.832C317.214 342.452 316.928 343.822 316.664 346.035C319.333 348.954 321.318 350.954 323.91 351.57C326.453 352.174 328.576 352.057 330.851 350.894C335.904 348.311 340.579 344.975 346.279 344.837C348.916 338.355 348.649 332.938 347.384 326.666C346.519 322.382 346.172 318.326 345.903 313.959C344.834 318.457 344.633 322.412 345.426 326.892C346.383 332.29 347.126 338.255 344.467 343C339.312 343.394 334.895 346.53 330.25 348.936C328.383 349.903 326.439 349.997 324.372 349.43C322.454 348.903 321.159 347.634 319.093 345.25C319.06 342.857 319.6 341.753 320.699 339.585C322.465 336.105 324.414 332.865 326.552 329.441C323.934 332.601 321.453 335.242 319.392 338.421C318.604 336.176 317.477 335.036 315.611 332.509C313.788 330.04 313.598 328.96 314.961 326.103C316.331 323.232 317.493 320.709 319.826 318.19C323.855 313.838 327.547 308.994 331.955 304.708C334.348 302.381 335.319 302.461 338.493 301.981C341.362 301.545 344.163 300.996 347.089 300.317C344.259 300.581 341.524 300.678 338.769 300.746L338.684 300.748C341.395 297.287 342.967 295.358 347.369 293.445C358.207 288.738 365.093 288.23 373.607 295.386C375.814 297.241 377.74 299.041 379.977 300.641C379.166 300.711 378.467 300.856 377.542 301.219C378.668 301.005 379.967 301.217 381.135 301.431C381.463 301.644 381.8 301.851 382.145 302.054C383.724 302.985 384.621 303.499 385.689 304.987C386.818 306.56 387.759 308.131 388.588 309.864C388.045 309.669 387.589 309.505 387.183 309.385C386.73 309.177 386.233 309.085 385.735 309.116C385.238 309.146 384.756 309.299 384.332 309.561L384.267 309.592C383.393 310.017 382.039 310.502 381.134 310.649C381.596 310.809 382.618 310.869 383.1 310.678C383.164 310.652 383.23 310.632 383.297 310.617C383.074 310.997 382.936 311.421 382.894 311.86C382.838 312.44 382.95 313.023 383.217 313.541L383.219 313.546C383.301 313.739 383.415 313.916 383.54 314.044C383.126 314.196 382.703 314.371 382.268 314.56C384.288 314.252 386.109 314.199 388.08 314.459C388.21 315.08 388.341 315.739 388.463 316.408L387.73 316.466C387.71 316.467 387.691 316.469 387.671 316.471C386.738 315.726 385.699 315.851 384.28 316.175C379.962 317.159 380.977 319.582 378.991 323.232C381.053 320.711 380.9 318.074 384.261 317.278C385.044 317.093 385.577 316.86 386.107 316.94C385.153 317.42 384.328 318.215 384.001 319.139C383.078 321.744 383.651 323.938 382.637 326.371C383.892 324.196 383.968 322.074 385.091 319.785C385.494 318.964 386.99 317.649 387.908 317.628L388.664 317.612C388.885 319.059 389.02 320.497 388.934 321.689C388.778 323.865 388.212 327.094 387.874 328.33C389.011 326.869 389.529 323.773 390.028 321.593C390.548 319.325 390.417 316.602 389.962 314.164C389.337 310.82 392.782 311.364 394.781 309.788C396.251 308.629 397.263 306.779 398.611 305.468C399.948 304.168 402.052 306.078 402.578 307.348C404.858 312.864 405.896 321.542 405.295 327.103C404.618 333.342 401.605 340.154 396.102 343.225C389.086 347.141 380.815 344.749 373.844 342.4V342.4ZM363.876 370.112C363.647 372.687 362.789 372.857 360.529 372.817C359.502 372.799 355.412 372.78 354.374 372.691C352.907 372.565 352.084 372.434 351.636 372.099C353.94 370.408 357.854 363.426 358.618 361.022C359.425 358.482 360.308 356.266 360.965 353.919C361.268 354.9 361.506 355.872 361.946 356.914C362.68 358.655 363.04 359.731 363.092 361.599L363.258 367.512C363.89 368.616 363.988 368.852 363.876 370.112V370.112ZM294.542 350.61C296.005 355.671 298.497 360.644 301.26 364.825V364.898C301.086 365.617 300.886 366.316 300.466 366.878C298.491 369.521 293.468 365.642 292.014 364.159C290.425 362.535 289.361 360.614 289.107 358.811C288.923 357.496 289.102 357.464 290.019 356.534L293.729 352.778L294.542 350.61V350.61ZM291.748 318.783C291.373 319.588 291.107 320.198 290.926 320.826C290.138 323.546 291.282 325.974 288.813 327.946C289.973 330.287 289.92 331.221 292.619 330.139C293.66 329.721 294.519 329.137 295.286 328.444C294.915 329.409 294.573 330.384 294.262 331.37C294.209 331.536 294.158 331.704 294.109 331.87C292.179 332.69 289.64 333.21 288.668 331.181C288.196 330.196 287.93 329.23 287.586 327.985C284.406 324.692 289.159 320.343 291.748 318.783V318.783ZM293.31 322.272C292.918 321.879 292.604 321.614 292.097 321.671C292.139 321.339 292.196 321.018 292.276 320.716C292.317 320.561 292.36 320.409 292.406 320.256C293.065 320.64 293.238 321.335 293.31 322.272V322.272ZM388.638 309.97C388.758 310.223 388.876 310.481 388.992 310.741C388.896 310.812 388.805 310.886 388.72 310.964C388.564 310.598 388.337 310.267 388.054 309.987C388.244 309.98 388.438 309.974 388.639 309.97H388.638ZM296.855 324.92L296.854 324.92V324.92H296.855ZM321.294 364.783H321.295H321.294ZM349.948 373.338H349.947H349.948ZM361.593 351.203H361.594L361.593 351.203L361.593 351.203ZM292.076 328.88H292.076L292.054 328.824L292.076 328.88L292.076 328.88ZM403.87 338.07L403.885 338.079L403.87 338.07Z" fill="black"/>
<path d="M280.859 328.087C281.364 322.36 282.478 319.886 286.548 315.576C281.443 319.172 280.169 320.807 280.859 328.087" fill="black"/>
<path d="M279.542 323.409C280.104 320.831 280.628 319.858 282.218 317.742C279.638 319.543 279.303 320.283 279.541 323.409" fill="black"/>
<path d="M339.431 287.471C336.373 288.208 335.79 288.773 334.873 291.771C336.336 289.576 337.178 288.862 339.431 287.471" fill="black"/>
<path d="M344.253 287.034C338.188 288.521 336.405 289.578 334.391 296.608C336.951 291.459 338.891 289.563 344.253 287.034" fill="black"/>
<path d="M357.317 312.661C357.963 309.797 359.112 307.037 363.56 304.901C357.664 306.378 356.559 308.854 357.317 312.661" fill="black"/>
<path d="M394.832 312.859C398.323 311.614 400.006 308.807 400.842 305.504C399.476 308.272 397.367 310.587 394.502 312.005C392.965 312.766 391.982 312.501 390.266 312.338C392.012 312.839 393.118 313.47 394.832 312.859Z" fill="black"/>
<path d="M371.046 315.666C370.598 314.727 369.8 314.001 368.822 313.646C369.679 313.188 370.52 312.708 371.176 312.111C369.254 313.001 367.016 312.784 365.366 313.898C363.913 314.88 361.908 317.99 360.431 319.308C361.5 318.893 362.531 318.175 363.48 317.419C363.485 318.137 363.686 318.841 364.061 319.453C364.436 320.066 364.971 320.565 365.608 320.897C365.062 321.612 364.627 322.406 364.319 323.25C367.13 319.919 371.206 317.402 375.039 316.326C373.968 316.311 372.699 316.511 371.407 316.936C371.359 316.495 371.237 316.066 371.046 315.666" fill="black"/>
<path d="M367.001 340.842C366.865 341.705 366.677 342.777 366.541 343.64C366.906 342.664 367.345 341.529 367.77 340.597C368.221 339.612 368.474 339.519 369.43 338.999C370.108 338.63 371.338 338.123 372.016 337.754C371.319 337.872 370.069 338.128 369.371 338.246C367.509 338.56 367.29 339.008 367.001 340.842" fill="black"/>
<path d="M335.186 307.532C333.024 309.669 330.924 317.001 330.253 319.934C331.31 317.497 333.955 310.681 335.983 308.947C336.544 308.467 336.935 308.173 337.356 307.959C335.904 310.394 336.011 311 336.52 314.263C336.953 310.946 338.1 309.664 339.982 307.19C342.045 306.672 343.976 306.052 346.092 305.226C343.709 305.496 341.322 305.743 338.934 305.969C336.93 306.159 336.607 306.127 335.185 307.532" fill="black"/>
<path d="M364.634 320.013C364.445 319.616 364.422 319.16 364.569 318.746C364.716 318.331 365.021 317.992 365.418 317.803C365.634 317.7 365.87 317.646 366.11 317.642C366.349 317.639 366.586 317.688 366.805 317.785C367.024 317.882 367.22 318.025 367.379 318.204C367.537 318.384 367.655 318.595 367.725 318.824C366.936 319.41 366.213 320.1 365.606 320.899C365.198 320.735 364.836 320.436 364.633 320.013" fill="#FFFFCC"/>
<path d="M383.094 312.872C383.16 312.189 383.742 311.685 384.425 311.751C384.754 311.784 385.056 311.945 385.266 312.2C385.476 312.454 385.576 312.782 385.546 313.11C385.532 313.251 385.494 313.389 385.433 313.517C384.808 313.624 384.184 313.807 383.54 314.044C383.271 313.768 383.056 313.265 383.094 312.872" fill="#FFFFCC"/>
</g>
<path d="M347.146 78.426H362.2V93.822H369.82C373.38 93.8062 376.913 93.2146 380.284 92.07C382.056 91.4834 383.761 90.7132 385.372 89.772C383.31 86.9186 382.086 83.5459 381.838 80.034C381.206 74.9093 382.526 69.7345 385.534 65.538L387.118 63.708L389.002 65.226C394 68.8913 397.387 74.3482 398.452 80.454C404.264 78.6665 410.547 79.2511 415.93 82.08L418 83.28L416.914 85.404C414.712 89.1184 411.455 92.0942 407.558 93.9531C403.661 95.8121 399.298 96.4703 395.026 95.844C381.988 128.322 353.626 143.7 319.174 143.7C310.595 144.21 302.036 142.396 294.402 138.447C286.768 134.499 280.341 128.563 275.8 121.266L275.65 121.008L274.294 118.254C271.227 111.296 270.03 103.658 270.82 96.096L271.03 93.816H283.888V78.426H298.948V63.366H329.068V48.306H347.14V78.426H347.146Z" fill="#3A4E55"/>
<path d="M395.944 84.126C396.048 80.8194 395.323 77.5394 393.838 74.5836C392.352 71.6278 390.152 69.0898 387.436 67.2C385.085 70.6524 383.976 74.8012 384.291 78.9665C384.606 83.1318 386.326 87.0666 389.17 90.126C383.579 94.2694 376.779 96.4561 369.82 96.348H273.298C272.47 104.051 273.858 111.83 277.3 118.77L278.398 120.78C279.093 121.959 279.852 123.099 280.672 124.194C284.64 124.45 288.298 124.54 291.646 124.464C297.071 124.497 302.47 123.711 307.66 122.13C307.951 122.03 308.269 122.049 308.545 122.183C308.821 122.318 309.033 122.557 309.133 122.847C309.234 123.137 309.214 123.456 309.08 123.732C308.945 124.008 308.707 124.22 308.416 124.32C307.876 124.506 307.312 124.686 306.73 124.848C303.119 125.858 299.406 126.462 295.66 126.648C295.924 126.648 295.384 126.69 295.384 126.69L294.892 126.732C290.878 126.908 286.857 126.896 282.844 126.696L282.784 126.738C287.464 131.606 293.132 135.415 299.407 137.909C305.682 140.403 312.418 141.525 319.162 141.198C352.522 141.198 380.818 126.408 393.352 93.198C402.244 94.11 410.788 91.842 414.67 84.258C411.771 82.7877 408.57 82.0105 405.32 81.9876C402.069 81.9647 398.858 82.6967 395.938 84.126" fill="#00AADA"/>
<path d="M395.944 84.126C396.047 80.8194 395.323 77.5394 393.837 74.5836C392.351 71.6278 390.151 69.0898 387.436 67.2C385.084 70.6524 383.975 74.8012 384.29 78.9665C384.605 83.1318 386.326 87.0666 389.17 90.126C383.578 94.2694 376.778 96.4561 369.82 96.348H279.016C278.521 101.726 279.424 107.141 281.638 112.067C283.852 116.993 287.301 121.264 291.652 124.464C297.077 124.497 302.476 123.711 307.666 122.13C307.81 122.08 307.962 122.06 308.114 122.069C308.265 122.078 308.414 122.117 308.551 122.183C308.688 122.25 308.81 122.343 308.911 122.457C309.012 122.571 309.089 122.703 309.139 122.847C309.188 122.991 309.209 123.143 309.2 123.295C309.191 123.447 309.152 123.595 309.085 123.732C309.019 123.869 308.926 123.991 308.812 124.092C308.698 124.193 308.566 124.27 308.422 124.32C307.882 124.506 307.318 124.686 306.736 124.848C303.027 125.887 299.217 126.519 295.372 126.732L295.258 126.6C306.61 132.426 323.074 132.402 341.95 125.154C363.488 116.452 382.33 102.188 396.55 83.82L395.95 84.108" fill="#27B9EC"/>
<path d="M273.478 106.392C274.047 110.7 275.339 114.881 277.3 118.758L278.398 120.768C279.093 121.947 279.852 123.087 280.672 124.182C284.64 124.438 288.298 124.528 291.646 124.452C297.071 124.485 302.47 123.698 307.66 122.118C307.804 122.068 307.956 122.048 308.108 122.057C308.26 122.066 308.408 122.105 308.545 122.171C308.682 122.238 308.804 122.331 308.905 122.445C309.006 122.559 309.083 122.691 309.133 122.835C309.183 122.979 309.203 123.131 309.194 123.283C309.185 123.435 309.146 123.583 309.08 123.72C309.013 123.857 308.92 123.979 308.806 124.08C308.692 124.181 308.56 124.258 308.416 124.308C307.876 124.494 307.312 124.674 306.73 124.836C303.026 125.86 299.222 126.477 295.384 126.678H294.784C293.038 126.774 291.184 126.834 289.252 126.834C287.146 126.834 284.998 126.792 282.652 126.678C287.346 131.549 293.028 135.361 299.315 137.858C305.602 140.355 312.351 141.479 319.108 141.156C347.668 141.156 372.508 130.314 386.908 106.356L273.478 106.392Z" fill="#088CB9"/>
<path d="M279.88 106.392C281.335 113.7 285.549 120.168 291.646 124.452C297.071 124.485 302.47 123.699 307.66 122.118C307.95 122.018 308.269 122.037 308.545 122.171C308.821 122.306 309.033 122.545 309.133 122.835C309.233 123.125 309.214 123.444 309.079 123.72C308.945 123.996 308.706 124.208 308.416 124.308C307.876 124.494 307.312 124.674 306.73 124.836C303.007 125.858 299.185 126.475 295.33 126.678C306.682 132.504 323.098 132.42 341.968 125.166C353.613 120.58 364.492 114.247 374.23 106.386L279.88 106.392Z" fill="#039CC7"/>
<path d="M297.334 82.026H298.366V92.904H297.334V82.026ZM295.354 82.026H296.428V92.904H295.354V82.026ZM293.374 82.026H294.448V92.904H293.38V82.026H293.374ZM291.394 82.026H292.468V92.904H291.4V82.026H291.394ZM289.414 82.026H290.488V92.904H289.42V82.026H289.414ZM287.476 82.026H288.508V92.904H287.488V82.026H287.476ZM286.39 80.94H299.44V93.996H286.396V80.94H286.39Z" fill="#00ACD3"/>
<path d="M312.4 66.966H313.432V77.844H312.4V66.966ZM310.42 66.966H311.494V77.844H310.42V66.966ZM308.44 66.966H309.514V77.844H308.44V66.966ZM306.46 66.966H307.534V77.844H306.46V66.966ZM304.48 66.966H305.548V77.844H304.48V66.966ZM302.542 66.966H303.574V77.844H302.542V66.966ZM301.456 65.88H314.512V78.936H301.462V65.874L301.456 65.88Z" fill="#00ACD3"/>
<path d="M312.4 82.026H313.432V92.904H312.4V82.026ZM310.42 82.026H311.494V92.904H310.42V82.026ZM308.44 82.026H309.514V92.904H308.44V82.026ZM306.46 82.026H307.534V92.904H306.46V82.026ZM304.48 82.026H305.548V92.904H304.48V82.026ZM302.542 82.026H303.574V92.904H302.542V82.026ZM301.456 80.94H314.512V93.996H301.462V80.94H301.456Z" fill="#26C2EE"/>
<path d="M327.454 82.026H328.486V92.904H327.454V82.026ZM325.474 82.026H326.548V92.904H325.48V82.026H325.474ZM323.494 82.026H324.568V92.904H323.5V82.026H323.494ZM321.514 82.026H322.6V92.904H321.526V82.026H321.514ZM319.534 82.026H320.608V92.904H319.534V82.026ZM317.596 82.026H318.628V92.904H317.596V82.026ZM316.51 80.94H329.566V93.996H316.522V80.94H316.51Z" fill="#00ACD3"/>
<path d="M327.454 66.966H328.486V77.844H327.454V66.966ZM325.474 66.966H326.548V77.844H325.48V66.966H325.474ZM323.494 66.966H324.568V77.844H323.5V66.966H323.494ZM321.514 66.966H322.6V77.844H321.526V66.966H321.514ZM319.534 66.966H320.608V77.844H319.534V66.966ZM317.596 66.966H318.628V77.844H317.596V66.966ZM316.51 65.88H329.566V78.936H316.522V65.874L316.51 65.88Z" fill="#26C2EE"/>
<path d="M342.52 82.026H343.552V92.904H342.52V82.026ZM340.54 82.026H341.614V92.904H340.54V82.026ZM338.56 82.026H339.634V92.904H338.56V82.026ZM336.58 82.026H337.654V92.904H336.58V82.026ZM334.6 82.026H335.674V92.904H334.6V82.026V82.026ZM332.662 82.026H333.694V92.904H332.662V82.026ZM331.6 80.94H344.656V93.996H331.6V80.94V80.94Z" fill="#26C2EE"/>
<path d="M342.52 66.966H343.552V77.844H342.52V66.966ZM340.54 66.966H341.614V77.844H340.54V66.966ZM338.56 66.966H339.634V77.844H338.56V66.966ZM336.58 66.966H337.654V77.844H336.58V66.966ZM334.6 66.966H335.674V77.844H334.6V66.966V66.966ZM332.662 66.966H333.694V77.844H332.662V66.966ZM331.576 65.88H344.632V78.936H331.6V65.874L331.576 65.88Z" fill="#00ACD3"/>
<path d="M342.52 51.9H343.552V62.778H342.52V51.9ZM340.54 51.9H341.614V62.778H340.54V51.9ZM338.56 51.9H339.634V62.778H338.56V51.9ZM336.58 51.9H337.654V62.778H336.58V51.9ZM334.6 51.9H335.674V62.778H334.6V51.9V51.9ZM332.662 51.9H333.694V62.778H332.662V51.9ZM331.6 50.814H344.656V63.87H331.6V50.814V50.814Z" fill="#26C2EE"/>
<path d="M357.58 82.026H358.6V92.904H357.58V82.026ZM355.6 82.026H356.668V92.904H355.6V82.026ZM353.62 82.026H354.694V92.904H353.62V82.026ZM351.64 82.026H352.714V92.904H351.64V82.026ZM349.66 82.026H350.734V92.904H349.66V82.026ZM347.722 82.026H348.754V92.904H347.722V82.026ZM346.636 80.94H359.692V93.996H346.642V80.94H346.636Z" fill="#00ACD3"/>
<path d="M313.696 115.158C314.408 115.158 315.104 115.369 315.696 115.765C316.288 116.16 316.75 116.723 317.022 117.38C317.295 118.038 317.366 118.762 317.227 119.46C317.088 120.159 316.745 120.8 316.242 121.304C315.738 121.807 315.097 122.15 314.399 122.289C313.7 122.428 312.976 122.356 312.319 122.084C311.661 121.812 311.098 121.35 310.703 120.758C310.307 120.166 310.096 119.47 310.096 118.758C310.096 117.803 310.475 116.888 311.151 116.212C311.826 115.537 312.741 115.158 313.696 115.158" fill="#D5EEF2"/>
<path d="M313.696 116.178C314.016 116.178 314.334 116.237 314.632 116.352C314.492 116.433 314.373 116.546 314.284 116.681C314.194 116.815 314.137 116.969 314.117 117.13C314.097 117.29 314.115 117.453 314.168 117.606C314.221 117.759 314.309 117.897 314.425 118.01C314.54 118.124 314.68 118.209 314.834 118.259C314.988 118.309 315.151 118.323 315.311 118.299C315.472 118.276 315.624 118.215 315.757 118.123C315.89 118.031 316 117.91 316.078 117.768C316.29 118.279 316.333 118.844 316.2 119.38C316.066 119.917 315.764 120.396 315.337 120.748C314.911 121.1 314.383 121.306 313.831 121.334C313.279 121.363 312.732 121.214 312.271 120.909C311.81 120.603 311.459 120.158 311.271 119.638C311.082 119.119 311.065 118.552 311.223 118.022C311.38 117.492 311.704 117.027 312.146 116.695C312.588 116.363 313.125 116.182 313.678 116.178" fill="#3A4E55"/>
<path d="M250 107.694H417.52C413.872 106.77 405.982 105.522 407.278 100.74C400.648 108.414 384.652 106.14 380.614 102.342C376.12 108.864 349.948 106.386 348.124 101.304C342.49 107.904 325.024 107.904 319.39 101.304C317.59 106.386 291.394 108.864 286.9 102.342C282.862 106.128 266.872 108.414 260.236 100.74C261.538 105.54 253.636 106.77 249.994 107.694" fill="#3A4E55"/>
<path d="M323.266 141.108C315.898 137.968 309.991 132.157 306.73 124.842C302.833 125.875 298.836 126.479 294.808 126.642C293.064 126.738 291.23 126.788 289.306 126.792C287.09 126.792 284.754 126.726 282.298 126.594C287.037 131.529 292.782 135.385 299.144 137.901C305.507 140.417 312.336 141.533 319.168 141.174C320.544 141.174 321.91 141.148 323.266 141.096" fill="#C0DBE1"/>
<path d="M310.042 130.638C308.734 128.83 307.624 126.887 306.73 124.842C302.834 125.875 298.836 126.479 294.808 126.642C299.552 129.02 304.741 130.378 310.042 130.626" fill="#D5EEF2"/>
<g clip-path="url(#clip2)">
<path d="M36.4326 91.9002C36.4326 93.4789 36.6038 94.7587 36.9022 95.6973C37.2811 96.7533 37.7373 97.7799 38.2671 98.7688C38.4805 99.11 38.5655 99.4512 38.5655 99.7502C38.5655 100.176 38.3098 100.603 37.7552 101.03L35.0678 102.822C34.6838 103.078 34.2998 103.206 33.9581 103.206C33.5318 103.206 33.105 102.992 32.6783 102.608C32.1035 101.99 31.5894 101.319 31.1428 100.603C30.716 99.8785 30.2893 99.0672 29.8202 98.0864C26.4926 102.011 22.3115 103.974 17.2778 103.974C13.6945 103.974 10.8359 102.949 8.74536 100.902C6.65529 98.8538 5.58887 96.1236 5.58887 92.7109C5.58887 89.0849 6.86868 86.1413 9.47108 83.9229C12.073 81.7045 15.5289 80.5953 19.9229 80.5953C21.3734 80.5953 22.8666 80.7231 24.4448 80.9365C26.0236 81.1499 27.6446 81.4911 29.3512 81.8751V78.7609C29.3512 75.5183 28.6682 73.2576 27.3456 71.935C25.9808 70.6124 23.6768 69.9723 20.392 69.9723C18.8988 69.9723 17.3633 70.1434 15.7846 70.5274C14.2063 70.9109 12.6704 71.3804 11.1772 71.9778C10.4947 72.2763 9.9829 72.4469 9.68396 72.5324C9.38552 72.618 9.17214 72.6602 9.00153 72.6602C8.40415 72.6602 8.10571 72.2335 8.10571 71.3377V69.2471C8.10571 68.5646 8.19127 68.0528 8.40415 67.7544C8.61753 67.4554 9.00153 67.157 9.59891 66.8586C11.0921 66.0906 12.8837 65.4504 14.9738 64.9386C17.0649 64.384 19.2833 64.1283 21.6295 64.1283C26.7065 64.1283 30.4181 65.2798 32.8071 67.5838C35.1533 69.8872 36.3481 73.3855 36.3481 78.0784V91.9002H36.4337H36.4326ZM19.1122 98.3848C20.5203 98.3848 21.9707 98.1291 23.5062 97.6168C25.0422 97.105 26.4076 96.1664 27.559 94.8866C28.242 94.0763 28.7538 93.1805 29.0094 92.1563C29.2656 91.1327 29.4362 89.8952 29.4362 88.4447V86.6531C28.1425 86.3382 26.8321 86.0961 25.5112 85.9279C24.1812 85.759 22.8419 85.6734 21.5012 85.6717C18.6426 85.6717 16.5526 86.2263 15.1449 87.3783C13.7368 88.5303 13.0543 90.1513 13.0543 92.2842C13.0543 94.2892 13.5662 95.7824 14.6326 96.8065C15.6567 97.873 17.1499 98.3848 19.1122 98.3848ZM53.3691 102.992C52.6011 102.992 52.0893 102.864 51.7481 102.565C51.4069 102.31 51.1079 101.712 50.8523 100.902L40.8272 67.925C40.5705 67.0715 40.4427 66.5169 40.4427 66.2184C40.4427 65.536 40.7839 65.1515 41.4668 65.1515H45.6475C46.4577 65.1515 47.0129 65.2798 47.3113 65.5783C47.6525 65.8344 47.9087 66.4318 48.1643 67.2421L55.3314 95.484L61.9866 67.2421C62.2 66.389 62.4561 65.8344 62.7968 65.5783C63.1386 65.3226 63.7359 65.152 64.5039 65.152H67.9166C68.7269 65.152 69.282 65.2798 69.6227 65.5783C69.9644 65.8344 70.2628 66.4318 70.4334 67.2421L77.1742 95.8252L84.5541 67.2421C84.8098 66.389 85.1087 65.8344 85.4072 65.5783C85.7484 65.3226 86.303 65.152 87.071 65.152H91.0382C91.7212 65.152 92.1052 65.4932 92.1052 66.2184C92.1052 66.4318 92.0624 66.6452 92.0196 66.9008C91.9768 67.157 91.8918 67.4982 91.7212 67.9678L81.4394 100.944C81.1837 101.798 80.8853 102.353 80.5436 102.608C80.2024 102.864 79.6478 103.035 78.9231 103.035H75.2542C74.4435 103.035 73.8889 102.907 73.5472 102.608C73.2059 102.31 72.9075 101.755 72.7369 100.902L66.124 73.3855L59.5543 100.859C59.3414 101.712 59.0852 102.267 58.744 102.565C58.4028 102.864 57.8054 102.992 57.0379 102.992H53.3686H53.3691ZM108.189 104.144C105.97 104.144 103.752 103.888 101.619 103.376C99.4856 102.864 97.8223 102.309 96.7131 101.67C96.0301 101.286 95.5606 100.859 95.3905 100.475C95.2243 100.099 95.1372 99.6922 95.1343 99.2806V97.105C95.1343 96.2092 95.4755 95.7824 96.1157 95.7824C96.377 95.7834 96.6363 95.8267 96.8837 95.9107C97.1393 95.9963 97.5233 96.1664 97.9501 96.337C99.4569 96.9997 101.03 97.5003 102.643 97.8302C104.314 98.1693 106.014 98.3408 107.72 98.342C110.407 98.342 112.498 97.873 113.948 96.9344C115.398 95.9958 116.166 94.6309 116.166 92.8816C116.166 91.6873 115.782 90.7059 115.014 89.8952C114.246 89.0849 112.796 88.3597 110.706 87.6768L104.52 85.7573C101.406 84.7759 99.1021 83.3255 97.694 81.4055C96.2863 79.5283 95.5611 77.4383 95.5611 75.2199C95.5611 73.4282 95.9451 71.8495 96.7131 70.4841C97.4806 69.1192 98.5047 67.925 99.7845 66.9864C101.064 66.005 102.515 65.2798 104.221 64.768C105.927 64.2562 107.719 64.0428 109.596 64.0428C110.535 64.0428 111.516 64.0856 112.455 64.2134C113.436 64.3412 114.332 64.5118 115.228 64.6824C116.081 64.8958 116.892 65.1092 117.66 65.3654C118.428 65.621 119.024 65.8772 119.451 66.1329C120.049 66.4746 120.475 66.8158 120.731 67.1998C120.987 67.541 121.115 68.01 121.115 68.6074V70.6124C121.115 71.5083 120.774 71.9778 120.134 71.9778C119.792 71.9778 119.238 71.8067 118.513 71.4655C116.081 70.3563 113.351 69.8017 110.322 69.8017C107.89 69.8017 105.97 70.1857 104.648 70.9964C103.326 71.8067 102.643 73.0442 102.643 74.7931C102.643 75.9879 103.069 77.0115 103.922 77.8223C104.776 78.6325 106.354 79.4433 108.615 80.1685L114.673 82.0885C117.745 83.0698 119.963 84.4347 121.286 86.1836C122.608 87.9329 123.248 89.9379 123.248 92.1563C123.248 93.9908 122.864 95.6546 122.139 97.105C121.371 98.5554 120.347 99.8352 119.024 100.859C117.702 101.926 116.124 102.694 114.289 103.248C112.369 103.846 110.364 104.144 108.189 104.144V104.144Z" fill="#FFD8CC" fill-opacity="0.9"/>
<path d="M116.251 124.877C102.216 135.244 81.8238 140.747 64.2905 140.747C39.7174 140.747 17.5766 131.66 0.853533 116.558C-0.469055 115.364 0.7252 113.743 2.30345 114.681C20.3919 125.176 42.7038 131.533 65.7836 131.533C81.3548 131.533 98.4618 128.29 114.204 121.635C116.55 120.568 118.555 123.171 116.251 124.877V124.877ZM122.096 118.222C120.305 115.919 110.236 117.113 105.672 117.668C104.306 117.839 104.093 116.644 105.33 115.748C113.351 110.116 126.533 111.738 128.069 113.615C129.605 115.535 127.642 128.717 120.134 135.031C118.982 136.012 117.873 135.5 118.385 134.22C120.091 129.997 123.888 120.483 122.096 118.222V118.222Z" fill="#FF9900"/>
</g>
<g filter="url(#filter0_bd)">
<path d="M11.261 358.492H22.776V363H5.675V328.945H11.261V358.492ZM56.7985 328.945L44.0095 363H37.5415L24.7035 328.945H30.6815L40.7755 357.267L50.9185 328.945H56.7985ZM97.3379 328.945V363H91.7519V339.676L81.3639 363H77.4929L67.0559 339.676V363H61.4699V328.945H67.4969L79.4529 355.65L91.3599 328.945H97.3379Z" fill="#E5C2B9"/>
</g>
<defs>
<filter id="filter0_bd" x="1.6748" y="324.945" width="99.6629" height="46.055" filterUnits="userSpaceOnUse" color-interpolation-filters="sRGB">
<feFlood flood-opacity="0" result="BackgroundImageFix"/>
<feGaussianBlur in="BackgroundImage" stdDeviation="2"/>
<feComposite in2="SourceAlpha" operator="in" result="effect1_backgroundBlur"/>
<feColorMatrix in="SourceAlpha" type="matrix" values="0 0 0 0 0 0 0 0 0 0 0 0 0 0 0 0 0 0 127 0"/>
<feOffset dy="4"/>
<feGaussianBlur stdDeviation="2"/>
<feColorMatrix type="matrix" values="0 0 0 0 0 0 0 0 0 0 0 0 0 0 0 0 0 0 0.25 0"/>
<feBlend mode="normal" in2="effect1_backgroundBlur" result="effect2_dropShadow"/>
<feBlend mode="normal" in="SourceGraphic" in2="effect2_dropShadow" result="shape"/>
</filter>
<clipPath id="clip0">
<rect width="82" height="82" fill="white" transform="translate(156 194)"/>
</clipPath>
<clipPath id="clip1">
<rect width="129" height="96.75" fill="white" transform="translate(279 287)"/>
</clipPath>
<clipPath id="clip2">
<rect width="128.837" height="77" fill="white" transform="translate(0 64)"/>
</clipPath>
</defs>
</svg>
